<svg height="466pt" viewBox="0 -69 466.69919 466" width="466pt" xmlns="http://www.w3.org/2000/svg"><path d="m169.574219 4.359375h231.328125v238.605469h-231.328125zm0 0" fill="#52b8d9"/><path d="m400.902344 246.964844h-231.328125c-2.207031 0-4-1.792969-4-4v-238.605469c0-2.210937 1.792969-4 4-4h231.328125c2.210937 0 4 1.789063 4 4v238.605469c0 2.207031-1.78125 4-4 4zm-227.328125-8h223.328125v-230.605469h-223.328125zm0 0" fill="#63312d"/><path d="m122.902344 4.359375h231.328125v238.605469h-231.328125zm0 0" fill="#82d9ff"/><path d="m138.902344 20.359375h215.328125v-16h-231.328125v238.613281h16zm0 0" fill="#caf4ff"/><path d="m354.222656 246.964844h-231.320312c-2.207032 0-4-1.792969-4-4v-238.605469c0-2.210937 1.792968-4 4-4h231.328125c2.210937 0 4 1.789063 4 4v238.605469c-.007813 2.207031-1.789063 4-4.007813 4zm-227.320312-8h223.328125v-230.605469h-223.328125zm0 0" fill="#63312d"/><path d="m268.664062 80.820312-10.054687 7.753907-10.050781-7.753907-10.039063 7.753907-10.007812-7.753907-10.023438 7.753907-10.015625-7.753907v-76.460937h60.191406zm0 0" fill="#f8f3f3"/><path d="m238.519531 92.574219c-.863281 0-1.726562-.28125-2.449219-.832031l-7.558593-5.855469-7.582031 5.855469c-1.441407 1.113281-3.449219 1.113281-4.898438 0l-10.007812-7.753907c-.976563-.757812-1.550782-1.925781-1.550782-3.167969v-76.472656c0-2.207031 1.792969-4 4-4h60.183594c2.207031 0 4 1.792969 4 4v76.472656c0 1.242188-.578125 2.410157-1.550781 3.167969l-10.050781 7.753907c-1.4375 1.113281-3.4375 1.121093-4.886719.007812l-7.617188-5.871094-7.582031 5.855469c-.722656.558594-1.585938.839844-2.449219.839844zm10.03125-15.746094c.855469 0 1.722657.273437 2.449219.832031l7.609375 5.867188 6.046875-4.664063v-70.503906h-52.183594v70.503906l6.007813 4.65625 7.582031-5.859375c1.441406-1.109375 3.449219-1.109375 4.898438 0l7.566406 5.859375 7.585937-5.859375c.71875-.550781 1.582031-.832031 2.4375-.832031zm0 0" fill="#63312d"/><path d="m458.367188 184.164062c-7.328126-10.488281-21.582032-13.390624-32.429688-6.605468l-104.601562 65.398437h-32.847657c15.40625 0 27.894531-12.488281 27.894531-27.894531 0-15.410156-12.488281-27.898438-27.894531-27.898438h-92.097656s-21.582031-32.804687-64.742187-32.804687c-43.167969 0-63.878907 31.078125-63.878907 31.078125v120.257812h271.421875l114.234375-88.808593c10.09375-7.847657 12.269531-22.234375 4.941407-32.722657zm0 0" fill="#f9dd9d"/><path d="m339.183594 309.695312h-271.421875c-2.210938 0-4-1.792968-4-4v-120.25c0-.792968.230469-1.558593.671875-2.214843.894531-1.34375 22.421875-32.855469 67.207031-32.855469 39.367187 0 61.398437 25.621094 66.800781 32.804688h90.046875c17.582031 0 31.894531 14.304687 31.894531 31.890624 0 9.503907-4.175781 18.046876-10.789062 23.894532h10.589844l103.632812-64.800782c12.648438-7.902343 29.28125-4.519531 37.832032 7.722657 8.542968 12.238281 6.007812 29.007812-5.785157 38.167969l-114.222656 88.789062c-.703125.554688-1.5625.851562-2.457031.851562zm-267.421875-8h266.046875l113.160156-87.960937c8.421875-6.542969 10.230469-18.519531 4.128906-27.273437-6.105468-8.75-17.976562-11.167969-27.035156-5.511719l-104.597656 65.410156c-.632813.398437-1.367188.605469-2.121094.605469h-32.847656c-2.207032 0-4-1.792969-4-4 0-2.207032 1.792968-4 4-4 13.175781 0 23.894531-10.71875 23.894531-23.894532 0-13.167968-10.71875-23.890624-23.894531-23.890624h-92.105469c-1.335937 0-2.597656-.679688-3.335937-1.796876-.207032-.3125-21.03125-31.007812-61.40625-31.007812-36.265626 0-56.082032 23.40625-59.878907 28.382812v114.9375zm0 0" fill="#63312d"/><path d="m200.070312 238.957031h88.425782v8h-88.425782zm0 0" fill="#63312d"/><path d="m67.765625 323.648438h-63.761719v-169.285157h63.761719zm0 0" fill="#f7a085"/><path d="m67.761719 327.652344h-63.761719c-2.207031 0-4-1.789063-4-4v-169.285156c0-2.210938 1.792969-4 4-4h63.761719c2.207031 0 4 1.789062 4 4v169.285156c0 2.210937-1.785157 4-4 4zm-59.761719-8h55.761719v-161.285156h-55.761719zm0 0" fill="#63312d"/></svg>